<svg xmlns="http://www.w3.org/2000/svg" viewBox="0 0 80.62 70.31"><defs><style>.cls-1{fill:#f4555a;}.cls-2{font-size:15.38px;font-family:Poppins-Medium, Poppins;font-weight:500;}.cls-2,.cls-3{fill:#fff;}</style></defs><g id="Layer_2" data-name="Layer 2"><g id="OBJECTS"><path class="cls-1" d="M70.22,0H10.4A10.43,10.43,0,0,0,0,10.4V43.93a10.43,10.43,0,0,0,10.4,10.4H20.92a4.1,4.1,0,0,1,2.88,1.19l13.59,13.6a4.06,4.06,0,0,0,5.75,0l13.6-13.6a4.07,4.07,0,0,1,2.87-1.19H70.22a10.43,10.43,0,0,0,10.4-10.4V10.4A10.43,10.43,0,0,0,70.22,0Z"/><text class="cls-2" transform="translate(46.31 33.67)">23</text><circle class="cls-3" cx="27.26" cy="26.95" r="11.8" transform="translate(-11.07 27.17) rotate(-45)"/><polygon class="cls-3" points="27.26 36.47 39.06 38.75 36.54 26.95 27.26 36.47"/></g></g></svg>