<svg xmlns="http://www.w3.org/2000/svg" viewBox="0 0 35.38 35.38"><defs><style>.cls-1{fill:#337fff;}.cls-2{fill:#fff;}</style></defs><g id="Layer_2" data-name="Layer 2"><g id="ELEMENTS"><path class="cls-1" d="M35.38,17.69A17.69,17.69,0,1,0,14.93,35.17V22.8h-4.5V17.69h4.5v-3.9c0-4.43,2.64-6.88,6.68-6.88a27,27,0,0,1,4,.35v4.35H23.34a2.56,2.56,0,0,0-2.89,2.76v3.32h4.91l-.78,5.11H20.45V35.17A17.7,17.7,0,0,0,35.38,17.69Z"/><path class="cls-2" d="M24.58,22.8l.78-5.11H20.45V14.37a2.56,2.56,0,0,1,2.89-2.76h2.23V7.26a27,27,0,0,0-4-.35c-4,0-6.68,2.45-6.68,6.88v3.9h-4.5V22.8h4.5V35.17a18.24,18.24,0,0,0,5.52,0V22.8Z"/></g></g></svg>