<svg xmlns="http://www.w3.org/2000/svg" viewBox="0 0 80.62 70.31"><defs><style>.cls-1{fill:#f4555a;}.cls-2{font-size:15.38px;font-family:Poppins-Medium, Poppins;font-weight:500;}.cls-2,.cls-3{fill:#fff;}</style></defs><g id="Layer_2" data-name="Layer 2"><g id="OBJECTS"><path class="cls-1" d="M70.22,0H10.4A10.43,10.43,0,0,0,0,10.4V43.93a10.43,10.43,0,0,0,10.4,10.4H20.92a4.1,4.1,0,0,1,2.88,1.19l13.59,13.6a4.06,4.06,0,0,0,5.75,0l13.6-13.6a4.07,4.07,0,0,1,2.87-1.19H70.22a10.43,10.43,0,0,0,10.4-10.4V10.4A10.43,10.43,0,0,0,70.22,0Z"/><text class="cls-2" transform="translate(47.31 31.67)">12</text><path class="cls-3" d="M33,20a5.42,5.42,0,1,1-5.42-5.41A5.42,5.42,0,0,1,33,20Z"/><path class="cls-3" d="M38.84,38.58H16.23A10.36,10.36,0,0,1,26.59,28.21h1.88A10.37,10.37,0,0,1,38.84,38.58Z"/></g></g></svg>