<svg id="Capa_1" enable-background="new 0 0 512 512" height="512" viewBox="0 0 512 512" width="512" xmlns="http://www.w3.org/2000/svg" style="fill: #001446"><g><path d="m226 255.626v41.456l41.455-20.728z"/><path d="m256 171.354c-57.891 0-105 47.109-105 105s47.109 105 105 105 105-47.109 105-105-47.109-105-105-105zm-60 174.272v-138.544l138.545 69.272z"/><path d="m409.847 143.718 26.461-26.461-21.211-21.211-29.097 29.097c-19.559-13.676-41.38-25.067-65.145-32.899l11.743-43.835-28.975-7.764-11.848 44.225c-11.565-2.062-23.392-3.516-35.775-3.516s-24.21 1.454-35.775 3.516l-11.847-44.224-28.975 7.764 11.743 43.835c-23.765 7.831-45.586 19.222-65.145 32.899l-29.098-29.098-21.211 21.211 26.461 26.461c-37.933 32.324-74.5 78.554-102.153 132.636 50.753 99.65 143.548 195 256 195 112.51 0 205.301-95.457 256-195-27.692-54.16-64.285-100.367-102.153-132.636zm-153.847 267.636c-74.443 0-135-60.557-135-135s60.557-135 135-135 135 60.557 135 135-60.557 135-135 135z"/></g></svg>