<svg xmlns="http://www.w3.org/2000/svg" viewBox="0 0 80.62 70.31"><defs><style>.cls-1{fill:#f4555a;}.cls-2,.cls-3{fill:#fff;}.cls-3{font-size:15.38px;font-family:Poppins-Medium, Poppins;font-weight:500;}</style></defs><g id="Layer_2" data-name="Layer 2"><g id="OBJECTS"><path class="cls-1" d="M70.22,0H10.4A10.43,10.43,0,0,0,0,10.4V43.93a10.43,10.43,0,0,0,10.4,10.4H20.92a4.1,4.1,0,0,1,2.88,1.19l13.59,13.6a4.06,4.06,0,0,0,5.75,0l13.6-13.6a4.07,4.07,0,0,1,2.87-1.19H70.22a10.43,10.43,0,0,0,10.4-10.4V10.4A10.43,10.43,0,0,0,70.22,0Z"/><path class="cls-2" d="M43.12,21.73a7.29,7.29,0,0,0-14.34-1.85,7.28,7.28,0,1,0-12.26,6.94h0l0,0,.06.07L28.27,38.58,40.56,27.27h0A7.25,7.25,0,0,0,43.12,21.73Z"/><text class="cls-3" transform="translate(51.63 31.67)">89</text></g></g></svg>