<svg id="Layer_1" enable-background="new 0 0 512.046 512.046" height="512" viewBox="0 0 512.046 512.046" width="512" xmlns="http://www.w3.org/2000/svg" style="fill: #001446"><g><path d="m256.023 333.321c-15.861 0-31.252-2.049-45.927-5.886v57.636h-53.493l99.409 126.975 99.408-126.975h-53.492v-57.63c-14.669 3.833-30.052 5.88-45.905 5.88z"/><path d="m256.023 303.321c83.626 0 151.661-68.034 151.661-151.66s-68.035-151.661-151.661-151.661c-83.625 0-151.66 68.035-151.66 151.661s68.034 151.66 151.66 151.66zm-15.033-222.658v-19.577h30v19.45h26.232v30h-53.106c-6.896 0-12.505 5.61-12.505 12.506s5.61 12.506 12.505 12.506h31.455c24.052 0 43.619 19.567 43.619 43.618 0 24.052-19.567 43.619-43.619 43.619h-4.581v19.45h-30v-19.45h-33.2v-30h67.78c7.51 0 13.619-6.109 13.619-13.619 0-7.509-6.109-13.618-13.619-13.618h-31.455c-23.438 0-42.505-19.068-42.505-42.506 0-22.385 17.398-40.771 39.38-42.379z"/></g></svg>