<svg xmlns="http://www.w3.org/2000/svg" viewBox="0 0 35.38 35.38"><defs><style>.cls-1{fill:#ee1d52;}.cls-1,.cls-2,.cls-3{fill-rule:evenodd;}.cls-2{fill:#fff;}.cls-3{fill:#69c9d0;}</style></defs><g id="Layer_2" data-name="Layer 2"><g id="ELEMENTS"><circle cx="17.69" cy="17.69" r="17.69"/><path class="cls-1" d="M22.34,14.65a8.74,8.74,0,0,0,5.09,1.62V12.62a4.8,4.8,0,0,1-1.07-.11v2.88a8.75,8.75,0,0,1-5.09-1.63V21.2a6.75,6.75,0,0,1-10.51,5.61,6.75,6.75,0,0,0,11.58-4.72V14.65ZM23.66,11a5.06,5.06,0,0,1-1.32-3V7.52h-1A5.16,5.16,0,0,0,23.66,11ZM13.12,24A3.08,3.08,0,0,1,15.58,19a3.34,3.34,0,0,1,.94.14V15.41a6.46,6.46,0,0,0-1.07-.06v2.9a3.34,3.34,0,0,0-.94-.14A3.08,3.08,0,0,0,13.12,24Z"/><path class="cls-2" d="M21.27,13.76a8.75,8.75,0,0,0,5.09,1.63V12.51A5.1,5.1,0,0,1,23.66,11a5.16,5.16,0,0,1-2.34-3.45H18.67V22.09A3.09,3.09,0,0,1,13.12,24a3.08,3.08,0,0,1,1.39-5.84,3.24,3.24,0,0,1,.94.14v-2.9a6.75,6.75,0,0,0-4.69,11.46A6.75,6.75,0,0,0,21.27,21.2Z"/><path class="cls-3" d="M26.36,12.51v-.77a5.05,5.05,0,0,1-2.7-.78A5,5,0,0,0,26.36,12.51Zm-5-5c0-.14,0-.28-.05-.42V6.63H17.6V21.2A3.09,3.09,0,0,1,13.12,24a3.09,3.09,0,0,0,5.55-1.86V7.52Zm-5.87,7.83v-.83a7.26,7.26,0,0,0-.93-.06,6.75,6.75,0,0,0-3.76,12.35,6.75,6.75,0,0,1,4.69-11.46Z"/></g></g></svg>