<svg xmlns="http://www.w3.org/2000/svg" viewBox="0 0 35.38 35.38"><defs><style>.cls-1{fill:red;}.cls-2{fill:#fff;}</style></defs><g id="Layer_2" data-name="Layer 2"><g id="ELEMENTS"><circle class="cls-1" cx="17.69" cy="17.69" r="17.69"/><path class="cls-2" d="M27.16,15.16a4.24,4.24,0,0,0-4.25-4.24H12.05A4.25,4.25,0,0,0,7.8,15.16v5.06a4.26,4.26,0,0,0,4.25,4.25H22.91a4.25,4.25,0,0,0,4.25-4.25Zm-6.39,2.91L15.9,20.48c-.19.1-.84,0-.84-.25v-5c0-.22.66-.36.85-.25l4.66,2.54C20.77,17.68,21,18,20.77,18.07Z"/></g></g></svg>